# xmcd
#
# Track frame offsets:
#	180
#	22325
#	39845
#	59548
#	68587
#	80436
#	104906
#	124496
#	140765
#	156020
#	176455
#	212228
#	224629
#	239058
#	255161
#
# Disc length: 3412 seconds
#
# Revision: 1
# Processed by: cddbd v1.5.2PL0 Copyright (c) Steve Scherf et al.
# Submitted via: audiograbber 1.83.01
#
DISCID=e80d520f
DTITLE=William Fierro - Voz Manos
DYEAR=1994
DGENRE=Folk
TTITLE0=Piste    Embrollo
TTITLE1=Piste  Monsieur H
TTITLE2=Piste  Lo malo y lo bueno
TTITLE3=Piste   Titou et Sydney
TTITLE4=Piste  Que mas vale?
TTITLE5=Piste  African salsa
TTITLE6=Piste  Identita non Identita
TTITLE7=Piste   Como el aire
TTITLE8=Piste   Encuentro
TTITLE9=Piste Rumba
TTITLE10=Piste Historica
TTITLE11=Piste Rue Caroline
TTITLE12=Piste Porque??
TTITLE13=Piste Fugaz
TTITLE14=rest
EXTD=
EXTT0=
EXTT1=
EXTT2=
EXTT3=
EXTT4=
EXTT5=
EXTT6=
EXTT7=
EXTT8=
EXTT9=
EXTT10=
EXTT11=
EXTT12=
EXTT13=
EXTT14=
PLAYORDER=
